Coordinates
version=1
nRows=86
nColumns=11
inDegrees=no

Units are S.I. units (second, meters, Newtons, ...)
If the header above contains a line with 'inDegrees', this indicates whether rotational values are in degrees (yes) or radians (no).

endheader
time	pelvis_tilt	pelvis_tx	pelvis_ty	hip_flexion_r	knee_angle_r	ankle_angle_r	hip_flexion_l	knee_angle_l	ankle_angle_l	lumbar_extension
0.01	0.111214	0.0905264	0.949372	-0.117731	-0.211559	0.214614	-0.139858	-0.15831	0.196646	0
0.02	0.114235	0.0909089	0.949488	-0.123821	-0.207159	0.211215	-0.143209	-0.159342	0.197175	0
0.03	0.114241	0.0910673	0.94949	-0.125122	-0.204973	0.212356	-0.143887	-0.158209	0.196461	0
0.04	0.113235	0.0911541	0.949534	-0.125179	-0.203084	0.213194	-0.14377	-0.156009	0.198477	0
0.05	0.111895	0.0911201	0.949509	-0.124194	-0.202109	0.212777	-0.142542	-0.155521	0.199794	0
0.06	0.110919	0.0909191	0.949455	-0.122782	-0.202124	0.210365	-0.141323	-0.155482	0.199412	0
0.07	0.111086	0.0909945	0.949413	-0.123546	-0.201283	0.208184	-0.141131	-0.156456	0.198468	0
0.08	0.110382	0.0912414	0.949347	-0.123181	-0.200987	0.209583	-0.140977	-0.155761	0.198654	0
0.09	0.109246	0.0914211	0.949279	-0.121863	-0.201646	0.2105	-0.140673	-0.154426	0.198216	0
0.1	0.108743	0.0914587	0.949223	-0.120914	-0.202816	0.2103	-0.139841	-0.155445	0.197357	0
0.11	0.108864	0.0915477	0.949253	-0.120935	-0.203101	0.211288	-0.139801	-0.155999	0.197735	0
0.12	0.109258	0.0917983	0.949312	-0.121264	-0.203744	0.211741	-0.140484	-0.155898	0.199798	0
0.13	0.109002	0.092002	0.949292	-0.120188	-0.20584	0.21213	-0.140555	-0.155631	0.19972	0
0.14	0.108165	0.09218	0.949225	-0.117913	-0.20887	0.214309	-0.140051	-0.155421	0.197714	0
0.15	0.106491	0.0922829	0.949126	-0.114808	-0.21164	0.215899	-0.138843	-0.154531	0.195592	0
0.16	0.104416	0.0923737	0.949008	-0.112576	-0.211939	0.21622	-0.137298	-0.153168	0.195224	0
0.17	0.102928	0.0924444	0.94892	-0.111444	-0.211233	0.215621	-0.135764	-0.153151	0.196601	0
0.18	0.104167	0.0926704	0.948992	-0.112797	-0.211584	0.21551	-0.138039	-0.151828	0.197493	0
0.19	0.10415	0.0928896	0.94903	-0.112801	-0.211892	0.214988	-0.137857	-0.152661	0.196472	0
0.2	0.102897	0.0931868	0.949007	-0.111446	-0.212565	0.215104	-0.136781	-0.152938	0.195445	0
0.21	0.101686	0.0933462	0.948957	-0.108745	-0.215818	0.216672	-0.136395	-0.151599	0.194236	0
0.22	0.100825	0.093337	0.948888	-0.106589	-0.218268	0.217826	-0.137053	-0.148378	0.192935	0
0.23	0.100251	0.0933516	0.948856	-0.106176	-0.217975	0.217818	-0.138174	-0.144756	0.193114	0
0.24	0.0994083	0.0934017	0.948808	-0.105306	-0.218216	0.218067	-0.137687	-0.144013	0.194858	0
0.25	0.0978964	0.093314	0.948704	-0.102706	-0.219918	0.218456	-0.135734	-0.144739	0.1941	0
0.26	0.09597	0.0930498	0.948618	-0.0992495	-0.22174	0.217823	-0.133718	-0.143984	0.193606	0
0.27	0.0943398	0.0929104	0.948562	-0.0975864	-0.221022	0.21678	-0.131889	-0.143663	0.19401	0
0.28	0.0929454	0.0930902	0.94853	-0.0969035	-0.219801	0.216548	-0.131188	-0.142611	0.192078	0
0.29	0.0915259	0.093181	0.948472	-0.0962841	-0.21822	0.216059	-0.130629	-0.140995	0.190496	0
0.3	0.0906649	0.0933019	0.948422	-0.095998	-0.217242	0.215649	-0.130202	-0.140371	0.189956	0
0.31	0.0901772	0.0935357	0.948412	-0.0958263	-0.21713	0.215722	-0.130209	-0.139902	0.191264	0
0.32	0.0892797	0.0938638	0.948359	-0.0951863	-0.217347	0.216747	-0.13042	-0.138202	0.193416	0
0.33	0.088442	0.0940843	0.94831	-0.0944738	-0.217525	0.216795	-0.130193	-0.137406	0.193268	0
0.34	0.0878855	0.0942453	0.948278	-0.0943808	-0.217049	0.215315	-0.129909	-0.137307	0.191221	0
0.35	0.086977	0.094299	0.948282	-0.0937934	-0.216924	0.215129	-0.128761	-0.137543	0.191211	0
0.36	0.0863409	0.094305	0.948331	-0.092804	-0.217803	0.218658	-0.12795	-0.13785	0.192646	0
0.37	0.0853235	0.0942718	0.948281	-0.0913677	-0.218993	0.221118	-0.126766	-0.138831	0.19201	0
0.38	0.0838714	0.0942732	0.94811	-0.0895529	-0.220984	0.220942	-0.125281	-0.140203	0.191107	0
0.39	0.0828445	0.0943823	0.948049	-0.0881539	-0.223862	0.217408	-0.124473	-0.141851	0.191117	0
0.4	0.0817837	0.0946952	0.947926	-0.0879811	-0.224571	0.213866	-0.124055	-0.142669	0.191763	0
0.41	0.0800342	0.0948935	0.947646	-0.0868583	-0.225864	0.214179	-0.122973	-0.143751	0.193265	0
0.42	0.0785014	0.0950409	0.947398	-0.0850171	-0.22925	0.219201	-0.121873	-0.145817	0.195675	0
0.43	0.0770101	0.0952168	0.947245	-0.0835395	-0.231752	0.225591	-0.121092	-0.147743	0.197267	0
0.44	0.0754661	0.0954746	0.947062	-0.08272	-0.232436	0.226541	-0.120957	-0.147839	0.197616	0
0.45	0.0744603	0.0958189	0.946913	-0.0839326	-0.230668	0.223609	-0.122891	-0.14444	0.196321	0
0.46	0.0746571	0.096163	0.946823	-0.0870545	-0.227838	0.223448	-0.125906	-0.141169	0.196338	0
0.47	0.0748049	0.0965305	0.946737	-0.0890898	-0.227254	0.224995	-0.127772	-0.140724	0.197735	0
0.48	0.0745875	0.0969865	0.946639	-0.0906899	-0.227075	0.225734	-0.129555	-0.140268	0.200044	0
0.49	0.0739494	0.0976226	0.946558	-0.0925087	-0.226146	0.226121	-0.132432	-0.137303	0.200443	0
0.5	0.0724644	0.0981834	0.946383	-0.0934935	-0.225058	0.228204	-0.134493	-0.133573	0.200719	0
0.51	0.0715571	0.0985167	0.946254	-0.0952257	-0.223261	0.230053	-0.136371	-0.130983	0.200969	0
0.52	0.0701837	0.0987602	0.946168	-0.0966437	-0.221149	0.230889	-0.137832	-0.128123	0.20074	0
0.53	0.0678063	0.0991048	0.94601	-0.0971289	-0.218049	0.231994	-0.138134	-0.126227	0.198474	0
0.54	0.0650496	0.0996831	0.945661	-0.0974999	-0.215173	0.2322	-0.138731	-0.124013	0.198262	0
0.55	0.0623177	0.10002	0.945299	-0.0972286	-0.213852	0.233342	-0.138924	-0.12209	0.200958	0
0.56	0.0598575	0.100007	0.945012	-0.0968405	-0.212566	0.232713	-0.1383	-0.120261	0.200334	0
0.57	0.0589938	0.100372	0.944897	-0.0986011	-0.210731	0.233052	-0.139711	-0.118637	0.197915	0
0.58	0.05758	0.101075	0.944729	-0.100726	-0.207328	0.233801	-0.140617	-0.118359	0.198672	0
0.59	0.0551398	0.101619	0.94452	-0.101828	-0.203854	0.233878	-0.140036	-0.118991	0.201634	0
0.6	0.0528091	0.10183	0.944314	-0.102811	-0.200901	0.23445	-0.139531	-0.119437	0.20406	0
0.61	0.050458	0.101694	0.944083	-0.10324	-0.197953	0.232614	-0.138056	-0.120775	0.205617	0
0.62	0.0492345	0.101946	0.943935	-0.105233	-0.194842	0.229955	-0.138114	-0.121691	0.205759	0
0.63	0.0481074	0.101979	0.943828	-0.106072	-0.194258	0.230415	-0.138463	-0.12145	0.205712	0
0.64	0.0469972	0.102078	0.943727	-0.10776	-0.192689	0.235218	-0.140267	-0.118934	0.204191	0
0.65	0.045338	0.101913	0.943568	-0.108324	-0.191075	0.237335	-0.140527	-0.117806	0.202619	0
0.66	0.043603	0.101709	0.943344	-0.107752	-0.191094	0.237049	-0.140127	-0.117201	0.204751	0
0.67	0.0425284	0.101604	0.943195	-0.107528	-0.192011	0.237928	-0.140007	-0.118185	0.208485	0
0.68	0.0423898	0.101715	0.94319	-0.110047	-0.190947	0.239428	-0.141227	-0.120303	0.211784	0
0.69	0.0415188	0.101695	0.943078	-0.112305	-0.188583	0.239125	-0.142464	-0.120193	0.2117	0
0.7	0.0396677	0.101321	0.94279	-0.110338	-0.191132	0.240349	-0.142224	-0.119354	0.21172	0
0.71	0.0383061	0.100725	0.942555	-0.108009	-0.194847	0.243568	-0.141027	-0.120988	0.213466	0
0.72	0.0372196	0.10006	0.942437	-0.108128	-0.194852	0.243329	-0.141031	-0.121203	0.214488	0
0.73	0.0368318	0.0995727	0.942289	-0.110974	-0.191174	0.240699	-0.141697	-0.121908	0.216997	0
0.74	0.0361174	0.0991979	0.942076	-0.111211	-0.19228	0.239088	-0.142027	-0.12254	0.219947	0
0.75	0.0344164	0.0986542	0.941795	-0.109876	-0.193549	0.240789	-0.142224	-0.12081	0.221056	0
0.76	0.0320929	0.0979893	0.941552	-0.107966	-0.195016	0.24445	-0.141727	-0.118975	0.220425	0
0.77	0.0293864	0.0971469	0.941273	-0.105329	-0.196786	0.248328	-0.140008	-0.118475	0.220453	0
0.78	0.0248664	0.0954123	0.940823	-0.0995303	-0.199058	0.250109	-0.134672	-0.120084	0.223442	0
0.79	0.0220728	0.0938607	0.940519	-0.0975413	-0.197514	0.249659	-0.130879	-0.122579	0.2255	0
0.8	0.0212155	0.0928291	0.940322	-0.0976004	-0.197128	0.24965	-0.131493	-0.121414	0.224791	0
0.81	0.0204258	0.0919816	0.940183	-0.0972623	-0.198139	0.249572	-0.133651	-0.117624	0.225325	0
0.82	0.0193348	0.0912204	0.939985	-0.0975489	-0.197929	0.251488	-0.134213	-0.116801	0.226867	0
0.83	0.0186792	0.0901592	0.939799	-0.0977338	-0.198365	0.253319	-0.133309	-0.119424	0.228411	0
0.84	0.0178251	0.0886515	0.939678	-0.096571	-0.199778	0.250779	-0.131163	-0.122998	0.229961	0
0.85	0.0171709	0.0872197	0.939563	-0.0963958	-0.199635	0.248931	-0.12947	-0.126184	0.231001	0
0.86	0.016674	0.0857016	0.9396	-0.0959631	-0.200728	0.250553	-0.126962	-0.130495	0.232558	0
